<?xml version="1.0" encoding="utf-8"?>
<!-- Generator: Adobe Illustrator 18.1.1, SVG Export Plug-In . SVG Version: 6.00 Build 0)  -->
<svg version="1.1" id="Calque_1" xmlns="http://www.w3.org/2000/svg" xmlns:xlink="http://www.w3.org/1999/xlink" x="0px" y="0px"
	 viewBox="0 0 100 100" enable-background="new 0 0 100 100" xml:space="preserve">
<path fill="#FFFFFF" d="M38.8,79.9C24.4,72.3,20.3,55,29.3,39.4c3.6-6.3,9-10.9,15.4-14.3c2.9-1.6,5.8-3.5,8.9-4.3
	c2.9-0.7,6.3-0.4,9.4,0.1c3.2,0.5,6.4,2,9.6,2.6c3,0.7,3.1,2.2,2.6,4.8c-2.5,13.4-4.7,26.9-7.1,40.2c-0.1,0.3,0,0.6,0,1.3
	c3-2,6-3.7,9-5.7c0.8,1.1,1.6,2.1,2.5,3.2c-5.8,4.2-11.4,8.3-17.1,12.5c-0.4,0-0.9,0-1.3,0c-1.6-1-3.1-2.1-4.9-2.8
	c-1.7-0.8-2.5-1.6-1.9-3.7c0.8-2.6,1.3-5.4,2.1-8.8c-5.7,5.5-10.8,10.4-16,15.4C40.1,79.9,39.4,79.9,38.8,79.9z M45.1,68.9
	c3.6-2.9,7.5-5.8,11.1-8.8c0.7-0.6,1.2-1.6,1.3-2.5c1.5-8.1,2.9-16.3,4.1-24.4c0.1-0.9-0.7-2.5-1.5-2.7c-2.8-1-5.8-1.5-8.6-2.4
	c-2.4-0.7-3.8,0.4-5.2,2.2c-6.5,8.1-8.5,17.4-7.4,27.4C39.4,62.1,41.3,66,45.1,68.9z"/>
</svg>
