<?xml version="1.0" encoding="utf-8"?>
<!-- Generator: Adobe Illustrator 18.1.1, SVG Export Plug-In . SVG Version: 6.00 Build 0)  -->
<svg version="1.1" id="Calque_1" xmlns="http://www.w3.org/2000/svg" xmlns:xlink="http://www.w3.org/1999/xlink" x="0px" y="0px"
	 viewBox="0 0 100 100" enable-background="new 0 0 100 100" xml:space="preserve">
<g>
	<path fill="#565C5E" d="M80.2,80.1H55.9v-2.9c2.1-0.1,3.9-0.4,5.3-0.8c1.4-0.4,2.1-0.9,2.1-1.5c0-0.2,0-0.5-0.1-0.9
		c-0.1-0.4-0.1-0.7-0.2-0.9l-4.8-13.1H37.6c-0.8,1.9-1.4,3.6-1.9,5c-0.5,1.4-0.9,2.7-1.3,4c-0.4,1.2-0.6,2.1-0.7,2.9
		s-0.2,1.3-0.2,1.8c0,1.1,0.9,2,2.6,2.6c1.7,0.6,3.7,1,5.9,1.1v2.9h-22v-2.9c0.7-0.1,1.6-0.2,2.7-0.5s2-0.6,2.6-1.1
		c1.1-0.7,2-1.5,2.6-2.3c0.6-0.8,1.2-1.9,1.8-3.4c2.9-7.3,6.2-15.6,9.7-24.7s6.7-17.3,9.5-24.4h3.3l19.5,50.5
		c0.4,1.1,0.9,1.9,1.4,2.6c0.5,0.7,1.3,1.3,2.2,1.9c0.6,0.4,1.5,0.7,2.5,1c1,0.3,1.9,0.4,2.6,0.4V80.1z M56.7,56.2l-8.9-22.7
		l-8.7,22.7H56.7z"/>
</g>
</svg>
