<?xml version="1.0" encoding="UTF-8" standalone="no"?>
<!-- Created with Inkscape (http://www.inkscape.org/) -->

<svg
   width="44.529911"
   height="46.521408"
   viewBox="0 0 11.781872 12.308789"
   version="1.1"
   id="svg1"
   xmlns="http://www.w3.org/2000/svg"
   xmlns:svg="http://www.w3.org/2000/svg">
  <defs
     id="defs1" />
  <g
     id="layer1"
     transform="translate(-0.48476389,-0.18969022)">
    <rect
       style="fill:#4d4d4d;stroke:#000000;stroke-width:0;stroke-linejoin:miter;stroke-dasharray:none;stroke-opacity:1;paint-order:normal"
       id="rect1"
       width="11.781872"
       height="12.308789"
       x="0.48476389"
       y="0.18969022"
       ry="1.2412225" />
    <a
       id="a1"
       transform="matrix(0.92815667,0,0,0.85758531,0.09130999,0.34092818)"
       style="fill:#ffffff;stroke:#ffffff;stroke-width:0.488938;stroke-linejoin:round;stroke-dasharray:none;stroke-opacity:1">
      <path
         style="font-size:19.3873px;font-family:Times;-inkscape-font-specification:Times;fill:#ffffff;stroke:#ffffff;stroke-width:0.488938;stroke-linejoin:round;stroke-dasharray:none;stroke-opacity:1"
         d="m 6.2622016,1.7477744 v 0.2934601 q -0.4922557,0.056799 -0.7005177,0.1514633 -0.1987956,0.094665 -0.1987956,0.416524 0,0.1514633 0.037866,0.2934602 0.047332,0.1325303 0.1514633,0.3975911 L 7.5212402,8.1944305 9.2252021,3.8587939 Q 9.348266,3.5464009 9.452397,3.2056085 9.5659945,2.8648161 9.5659945,2.6849535 9.5659945,2.3157617 9.2157357,2.154832 9.0074736,2.0696339 8.6477483,2.0412345 V 1.7477744 h 2.6884737 v 0.2934601 q -0.463857,0.037866 -0.672119,0.312393 -0.198795,0.2650608 -0.58692,1.2401057 L 7.3413775,10.409581 q -0.075732,0.179863 -0.1230639,0.246128 -0.047332,0.06626 -0.1325304,0.06626 -0.094664,0 -0.1609297,-0.113597 -0.066265,-0.104131 -0.1419969,-0.265061 L 3.8861213,3.4138705 Q 3.5358625,2.571356 3.1382713,2.2684294 2.90161,2.0980333 2.4472201,2.0412345 V 1.7477744 Z"
         id="text1"
         transform="scale(0.9794276,1.0210045)"
         aria-label="v" />
    </a>
  </g>
  <text
     xml:space="preserve"
     style="font-style:normal;font-variant:normal;font-weight:normal;font-stretch:normal;font-size:10.7174px;font-family:Superclarendon;-inkscape-font-specification:Superclarendon;text-align:start;writing-mode:lr-tb;direction:ltr;text-anchor:start;fill:none;stroke:#ffffff;stroke-width:0.367841;stroke-linejoin:round;stroke-dasharray:none;stroke-opacity:1;paint-order:normal"
     x="1.3268805"
     y="9.458169"
     id="text2-8"
     transform="scale(0.92515299,1.0809023)"><tspan
       id="tspan1-6"
       style="font-style:normal;font-variant:normal;font-weight:normal;font-stretch:normal;font-size:10.7174px;font-family:Raanana;-inkscape-font-specification:Raanana;fill:none;stroke:#ffffff;stroke-width:0.367841;stroke-dasharray:none;stroke-opacity:1"
       x="1.3268805"
       y="9.458169">V</tspan></text>
  <path
     id="text2"
     style="font-size:12.4454px;font-family:'Plantagenet Cherokee';-inkscape-font-specification:'Plantagenet Cherokee';fill:none;stroke:#ffffff;stroke-width:0.349969;stroke-linejoin:round;stroke-opacity:1"
     d="m 3.759694,3.1059177 c -0.039451,0 -0.068895,0.017776 -0.088619,0.054121 -0.019725,0.036346 -0.029718,0.076482 -0.029718,0.1200973 0,0.043616 0.00999,0.08375 0.029718,0.120097 0.019726,0.036346 0.049169,0.05819 0.088619,0.06546 0.1332845,0.01842 0.250732,0.04259 0.3523546,0.072676 A 1.8072084,2.7119178 0 0 1 4.0998441,3.2208601 1.8072084,2.7119178 0 0 1 4.1014362,3.112618 c -0.1123871,-0.00464 -0.22656,-0.0067 -0.3417422,-0.0067 z m 4.734499,0 c -0.039452,0 -0.069426,0.017776 -0.089149,0.054121 -0.019725,0.036346 -0.029718,0.080037 -0.029718,0.1309213 0,0.043617 0.00999,0.083751 0.029718,0.1200972 0.026299,0.036346 0.062759,0.054636 0.1087842,0.054636 0.1117768,0 0.2100979,0.00356 0.2955744,0.010825 0.085475,0.00726 0.1548844,0.029116 0.2074859,0.06546 0.059175,0.036346 0.1015904,0.094257 0.1278879,0.1742182 0.032878,0.072693 0.04935,0.1748092 0.04935,0.3056551 0,0.1235763 -0.026471,0.3049345 -0.079067,0.5448184 C 9.0624574,4.799285 9.0000635,5.046695 8.9277378,5.3083865 8.8554118,5.570078 8.7800496,5.8210427 8.7011482,6.0609266 8.6288221,6.3008104 8.5694049,6.4897941 8.5233791,6.6279091 L 7.7146617,8.8736746 c -0.013149,0.036347 -0.039085,0.054636 -0.078537,0.054636 -0.032876,0 -0.056366,-0.01829 -0.069515,-0.054636 C 7.0988587,7.5964305 6.7351029,6.570231 6.475053,5.7949603 A 1.8072084,2.7119178 0 0 1 5.9072527,5.9325825 1.8072084,2.7119178 0 0 1 5.3707609,5.8104236 c 0.2020221,0.5972661 0.4110441,1.1929828 0.6277643,1.7875407 0.3616311,0.9740738 0.7335484,1.9520173 1.1149049,2.9333607 0.019724,0.05087 0.049167,0.08695 0.08862,0.108758 0.039451,0.02908 0.081861,0.04381 0.1278876,0.04381 0.046026,0 0.08546,-0.01473 0.118336,-0.04381 0.039453,-0.02181 0.069426,-0.05787 0.08915,-0.108758 L 7.892431,9.539106 9.4605149,5.0465437 C 9.532843,4.850275 9.5987467,4.6612914 9.6579186,4.4795613 9.7236771,4.2978312 9.796052,4.1378029 9.8749556,3.9996881 9.9604382,3.8543039 10.065233,3.7344103 10.190163,3.6399119 c 0.131503,-0.094499 0.302741,-0.1524103 0.513144,-0.1742181 0.0526,-0.00726 0.08854,-0.029116 0.108254,-0.065461 0.02628,-0.036346 0.03981,-0.076481 0.03981,-0.1200972 0.0065,-0.043617 -4.34e-4,-0.083751 -0.02016,-0.1200972 -0.01972,-0.036347 -0.04565,-0.054122 -0.07854,-0.054122 -0.203829,0 -0.391541,0.010664 -0.562497,0.032472 -0.164376,0.021808 -0.3385889,0.032988 -0.5226926,0.032988 -0.1906791,0 -0.3813681,-0.011182 -0.572046,-0.032988 C 8.9047435,3.1165812 8.7045939,3.1059177 8.4941902,3.1059177 Z" />
  <path
     style="fill:#ffffff;stroke:#ffffff;stroke-width:0.374254;stroke-linejoin:round;stroke-dasharray:none;stroke-opacity:1;paint-order:normal"
     d="M 2.1535609,0.82400853 5.223574,0.84523981"
     id="path4" />
</svg>
