<?xml version="1.0" encoding="utf-8"?>
<!-- Generator: Adobe Illustrator 18.1.1, SVG Export Plug-In . SVG Version: 6.00 Build 0)  -->
<svg version="1.1" id="Calque_1" xmlns="http://www.w3.org/2000/svg" xmlns:xlink="http://www.w3.org/1999/xlink" x="0px" y="0px"
	 viewBox="0 0 100 100" enable-background="new 0 0 100 100" xml:space="preserve">
<g>
	<path fill="#000333" d="M51.2,70.5V33.3c0-0.7-0.6-1.2-1.2-1.2s-1.2,0.6-1.2,1.2v37.2c0,0.7,0.6,1.2,1.2,1.2S51.2,71.2,51.2,70.5z"
		/>
	<path fill="#000333" d="M87.4,24c-2.6,0-5.9-1.1-9.4-2.3c-4.4-1.5-9.4-3.3-14.6-3.3c-6,0-9.6,2.6-11.6,4.8C51,24,50.4,24.9,50,25.6
		c-0.4-0.7-1-1.6-1.8-2.4c-2-2.2-5.7-4.8-11.6-4.8c-5.2,0-10.2,1.7-14.6,3.3c-3.5,1.2-6.8,2.3-9.4,2.3c-0.7,0-1.2,0.6-1.2,1.2v50.2
		c0,0.7,0.6,1.2,1.2,1.2c3.1,0,6.5-1.2,10.2-2.5c4.2-1.5,9-3.1,13.7-3.1c4.1,0,7.4,1.3,9.8,4c0.5,0.5,1.3,0.5,1.8,0.1
		s0.5-1.3,0.1-1.8c-2-2.2-5.7-4.8-11.6-4.8c-5.2,0-10.2,1.7-14.6,3.3c-2.9,1-5.8,2-8.1,2.3V26.4c2.7-0.3,5.8-1.3,9-2.4
		c4.2-1.5,9-3.1,13.7-3.1c9.6,0,12.1,7.6,12.2,8c0.2,0.5,0.6,0.9,1.2,0.9s1-0.4,1.2-0.9c0-0.1,2.6-8,12.2-8c4.8,0,9.5,1.7,13.7,3.1
		c3.2,1.1,6.2,2.2,9,2.4v47.7c-2.4-0.3-5.2-1.2-8.1-2.3c-4.4-1.5-9.4-3.3-14.6-3.3c-6,0-9.6,2.6-11.6,4.8c-0.5,0.5-0.4,1.3,0.1,1.8
		c0.5,0.5,1.3,0.4,1.8-0.1c2.4-2.7,5.7-4,9.8-4c4.8,0,9.5,1.7,13.7,3.1c3.7,1.3,7.2,2.5,10.2,2.5c0.7,0,1.2-0.6,1.2-1.2V25.2
		C88.6,24.5,88.1,24,87.4,24z"/>
	<path fill="#000333" d="M87.4,79.1c-2.6,0-5.9-1.1-9.4-2.3c-4.4-1.5-9.4-3.3-14.6-3.3c-5.6,0-9.2,2.3-11.3,4.4l-4.3,0
		c-2.1-2.1-5.6-4.4-11.3-4.4c-5.2,0-10.2,1.7-14.6,3.3c-3.5,1.2-6.8,2.3-9.4,2.3c-0.7,0-1.2,0.6-1.2,1.2c0,0.7,0.6,1.2,1.2,1.2
		c3.1,0,6.5-1.2,10.2-2.5c4.2-1.5,9-3.1,13.7-3.1c4.1,0,7.4,1.3,9.8,4c0.2,0.3,0.6,0.4,0.9,0.4l5.4,0c0.3,0,0.7-0.1,0.9-0.4
		c2.4-2.7,5.7-4,9.8-4c4.8,0,9.5,1.7,13.7,3.1c3.7,1.3,7.2,2.5,10.2,2.5c0.7,0,1.2-0.6,1.2-1.2C88.6,79.7,88.1,79.1,87.4,79.1z"/>
</g>
</svg>
