<svg xmlns="http://www.w3.org/2000/svg" viewBox="0 0 90.21 83.54"><defs><style>.cls-1,.cls-2{fill:none;stroke:#fff;stroke-linecap:round;stroke-linejoin:round;}.cls-1{stroke-width:0.64px;}.cls-2{stroke-width:1.28px;}</style></defs><title>logo_min_variance</title><g id="Calque_2" data-name="Calque 2"><g id="variance_logo_03" data-name="variance logo 03"><path class="cls-1" d="M44.56,83.22,13,.32H27.85L45.65,50q2.89,8,5.31,16.7,1.87-6.56,5.23-15.77L74.61.32H89.05L57.67,83.22H44.56Z"/><path class="cls-2" d="M14.19,8.67c2.72,0,7.83.48,17.11.48,6.72,0,13.43-.32,16.63-.48,1,.8,1,5.44.32,6.4a56.58,56.58,0,0,0-6.39,1.28,2.09,2.09,0,0,0-1.6,2.56C42,24.66,52.56,52.8,53.84,55.83c.16.32.8.16.8-.16,3.52-8.15,9.75-23.5,12.63-32.29,1.44-4.32.32-6.24-1.76-6.87a21.23,21.23,0,0,0-6.88-1.44c-.64-1.12-.16-5.92.64-6.4,1.76.16,8.31.48,15.35.48,6.71,0,12.47-.32,14.39-.48,1,.8.48,5.6,0,6.4a49.49,49.49,0,0,0-6.07,1.12c-3.36,1.28-4.48,3.68-6.87,8.31-4.64,10.39-8.15,18.23-14.55,33.89-2.72,7-4.64,12.31-5.76,16.47a49.8,49.8,0,0,0-9.75,0c-1.28-4.48-3.2-10.07-5.28-15.67-5-12.63-10.07-25.9-13.11-33.1s-3.84-8.31-7.19-9.59a39,39,0,0,0-7-1.44C13.07,13.63,13.55,9.47,14.19,8.67Z"/><path class="cls-2" d="M7.42,3.62H41.07V6.5H38.88A6.59,6.59,0,0,0,34.24,8a5.16,5.16,0,0,0-1.6,4,16.67,16.67,0,0,0,1.64,6.48L50.9,57.94,67.61,17a19.5,19.5,0,0,0,1.79-6.64,2.6,2.6,0,0,0-.62-1.79,4.32,4.32,0,0,0-2.19-1.6,21.45,21.45,0,0,0-5.39-.43V3.61H84.55V6.5q-4.06.31-5.62,1.64Q76.2,10.49,74,15.95L48.64,77.3h-3.2L19.91,17a23.32,23.32,0,0,0-3.28-6,13,13,0,0,0-4-3.08A19.51,19.51,0,0,0,7.43,6.5V3.62Z"/><path class="cls-1" d="M49.42,76.59H38.33l-26.93-61H4.69a4.88,4.88,0,0,1-3.36-.94,3.14,3.14,0,0,1-1-2.42,3.05,3.05,0,0,1,1-2.34A4.88,4.88,0,0,1,4.69,9H29.28a4.88,4.88,0,0,1,3.36.94,3.15,3.15,0,0,1,1,2.42,3.06,3.06,0,0,1-1,2.34,4.88,4.88,0,0,1-3.36.94H18.43L42.47,70h2.89L68.93,15.63H58a4.87,4.87,0,0,1-3.36-.94,3.14,3.14,0,0,1-1-2.42,3.05,3.05,0,0,1,1-2.34A4.88,4.88,0,0,1,58,9H82.67a4.86,4.86,0,0,1,3.4.94,3.21,3.21,0,0,1,1,2.42,3.11,3.11,0,0,1-1,2.34,4.86,4.86,0,0,1-3.4.94H76Z"/></g></g></svg>