<?xml version="1.0" encoding="utf-8"?>
<!-- Generator: Adobe Illustrator 21.1.0, SVG Export Plug-In . SVG Version: 6.00 Build 0)  -->
<svg version="1.1" id="Calque_1" xmlns="http://www.w3.org/2000/svg" xmlns:xlink="http://www.w3.org/1999/xlink" x="0px" y="0px"
	 viewBox="0 0 100 100" style="enable-background:new 0 0 100 100;" xml:space="preserve">
<style type="text/css">
	.st0{fill:#FFFFFF;}
</style>
<path class="st0" d="M82.7,75.8c-1.9,0-3.4-1.5-3.4-3.4L79.2,42l-26.9,0.1l0.1,30.3c0,1.9-1.5,3.4-3.4,3.4l-34.2,0.1
	c-1.9,0-3.4-1.5-3.4-3.4l-0.1-33.5c0-1.9,1.5-3.4,3.4-3.4c1.9,0,3.4,1.5,3.4,3.4L18.3,69l27.4-0.1l-0.1-30.3c0-1.9,1.5-3.4,3.4-3.4
	l33.7-0.1c1.9,0,3.4,1.5,3.4,3.4l0.1,33.8C86.1,74.3,84.6,75.8,82.7,75.8z"/>
</svg>
