<?xml version="1.0" encoding="utf-8"?>
<!-- Generator: Adobe Illustrator 18.1.1, SVG Export Plug-In . SVG Version: 6.00 Build 0)  -->
<svg version="1.1" id="Calque_1" xmlns="http://www.w3.org/2000/svg" xmlns:xlink="http://www.w3.org/1999/xlink" x="0px" y="0px"
	 viewBox="0 0 158.7 59.5" enable-background="new 0 0 158.7 59.5" xml:space="preserve">
<path fill-rule="evenodd" clip-rule="evenodd" fill="#FFFFFF" d="M124.2,30.9c-0.7-0.1-6.3-0.7-9.9-0.5c-2,0.1-10.5,1.1-14.2,1.8
	c-3.2,0.6-7.7,1.6-12.7,1.7c-6.1,0.1-9-1.2-10.6-1.9c-1.6-0.7-2.9-1.9-3.4-2.5c-0.5-0.5-0.5-1.5-0.5-1.5s5.3-5.7,7.8-10.6
	c2.2-4.2,2.8-7.3,3-8.8c0.2-1.5-0.2-2.7-1-3.3c-0.8-0.6-2-0.7-3.1-0.1c-1.5,0.9-3,2.6-4.1,4.2c-1.1,1.6-2.7,3.9-3.8,7.8
	c-1.2,4.3-1.4,6.1-1.5,7.1c0,1,0.1,2.7,0.1,2.7S69,28.6,67.6,30c-1.4,1.3-3,2.6-4.9,2.3c-1.5-0.2-1.6-1.9-1.6-2.8c0-0.9,0.4-2,0.5-3
	c0.1-1,0.2-0.7-0.2-1.1c-0.4-0.4-1-0.2-1.8-0.2c-0.8,0-0.6,0.5-1.1,1.3c-0.4,0.8-1.5,3-2.8,4.2c-1.3,1.2-1.8,1.1-2.9,1
	c-1-0.1-1.6-0.6-2-1.5c-0.4-0.9-0.3-4.2-0.3-5.1c-0.1-0.9-0.5-1.5-1.2-1.9c-0.9-0.5-1.9-0.2-2.8,0.5c-0.9,0.7-2.4,2.8-3,3.9
	c-0.6,1.1-2,2.6-2.3,2.5c-0.4,0-0.4-0.7-0.2-1.9c0.1-0.8,0.2-1.9,0.2-2.8c0-0.9-0.5-1.3-1.4-1.5c-0.9-0.2-1.7,0.3-2.3,1.1
	c-0.7,0.9-1.9,2.5-3.2,4.2c-1.3,1.7-3.4,3.7-4.2,3.6c-0.8-0.1-1.1-0.6-1.4-1.6c-0.3-0.9,0.2-4.6,0.3-5.9c0.1-1.3,1-7.2,1.7-10.3
	c0.7-3.1,0.9-3.6,1.5-5.8c0.6-2.3,0.8-1.9,0.6-3c-0.2-1.1-0.8-1.1-1.4-1.2c-0.6-0.2-0.9-0.2-1.4,0.1c-0.6,0.3-1,0.5-1.4,1.9
	c-0.4,1.4-1.2,3.9-3.4,8.7c-2.3,4.8-4.9,9-7.7,13.3c-2.4,3.7-3.6,4-4.4,3.8c-0.7-0.2-0.8-1.1-0.8-1.9c0-0.8,0.2-2,0.7-3.5
	c0.4-1.5,1.5-4.4,2.6-6.8c1-2.4,3.1-6.7,4.8-10.5c1.9-4.1,2.2-5.9,2.4-6.5c0.2-0.8-0.5-1.1-1.1-1.3C21,1.7,20,2,20,2
	c-0.6,0.2-1.1,0.4-1.6,0.9c-0.5,0.6-2.1,1.7-2.8,1.9C15,5,15,5.3,15.3,5.8c0,0,0.1,0.6,0.8,0.5c0.7-0.1,0.5-0.2,1.2-0.3
	c0.7-0.1,0.8,0.7,0.3,2c-0.5,1.3-2.3,5.9-3.5,9.2c-1.2,3.3-4.4,10.7-4.7,14.2c-0.3,2.8-0.5,4.7,1.3,6.2c2.3,2.1,7.4-2.1,9.2-5.6
	c1.2-2.3,5.6-10.6,6.4-12.3c0.8-1.7,2.3-4.9,2.1-4.1c-0.3,0.8-1.7,7-2.4,12.6c-0.7,5.6,1.3,6.1,2.6,6.7c1.3,0.6,3.1-0.5,4-1.2
	c0.9-0.7,4.3-5.1,4.6-5.7c0.3-0.6,1-0.6,1-0.3c0,0.3,0,2.9,0.5,4c0.5,1.1,0.9,1.7,2.3,2.2c1.3,0.5,2.1-0.4,3.6-2.5
	c1.6-2.2,2.4-4.3,2.8-4.7c0.5-0.6,0.5,0.3,0.6,1.2c0.1,1,0.1,2.7,1.4,4.1c1.2,1.4,2,2.2,4.5,1.9c2.4-0.3,4.8-3.6,4.8-3.6
	s0.2,2.2,1.8,3.7c1.6,1.5,2.4,1.5,4.8,1.2c2.4-0.3,6.3-5.4,6.3-5.4s1.8,2.4,3.9,3.6c2.7,1.5,7.9,2.5,12.4,2.6
	c4.5,0.1,11.7-1.2,17.5-2.7c5-1.2,11.1-1.9,13.3-2c2.2-0.1,5.2,0.5,5.4,0.3C124,31.5,124.9,31,124.2,30.9L124.2,30.9z M75.7,13.5
	C78,9.7,80,7.8,80.7,8c0.7,0.3,0.7,0.4,0.2,1.9c-0.5,1.4-1.4,4.8-4,8.4c-2.5,3.6-4.5,6-4.5,6S72.8,18.5,75.7,13.5L75.7,13.5z"/>
<path fill-rule="evenodd" clip-rule="evenodd" fill="#FFFFFF" d="M59.7,18.7c0-0.1-0.1-0.2,0.2-0.2c0.3,0,0.5,0.1,0.5,0.1
	c0,0,0.2,0,0.2,0s0.2-0.7,0.2-0.8c0.1-0.1,0.2-0.1,0.3-0.2c0.1-0.1,0.2-0.3,0.4-0.4c0.2-0.1,0.2-0.1,0.5-0.1c0.3,0,0.6,0,0.8,0.1
	c0.2,0.1,0.2,0.1,0.4,0.2c0.1,0.1,0.3,0.2,0.3,0.4c0,0.2,0,0.2,0,0.4c0,0.1-0.1,0.2,0,0.3c0.1,0.1,0.1,0.2,0.1,0.4
	c0,0.2,0,0.4-0.1,0.4c-0.1,0.1-0.6,0.3-0.8,0.4c-0.2,0-0.8,0.2-1,0.2c-0.2,0-0.7,0-0.9,0c-0.2,0-0.6-0.1-0.7-0.2
	c-0.1-0.1-0.1-0.2-0.2-0.4C59.9,19.2,59.7,18.7,59.7,18.7L59.7,18.7z"/>
<path fill="#FFFFFF" d="M0,45.6h1.5v4.3c0,1.3,0.4,2.1,1.6,2.1c1.2,0,1.6-0.8,1.6-2.1v-4.3h1.5v4.8c0,2-1.1,2.8-3.1,2.8
	c-1.9,0-3.1-0.8-3.1-2.8V45.6L0,45.6z"/>
<polygon fill="#FFFFFF" points="8.4,45.6 10.2,45.6 13.1,51.2 13.1,51.2 13.1,45.6 14.6,45.6 14.6,53.1 12.7,53.1 9.8,47.5 
	9.8,47.5 9.8,53.1 8.4,53.1 8.4,45.6 "/>
<polygon fill="#FFFFFF" points="16.7,45.6 18.2,45.6 18.2,53.1 16.7,53.1 16.7,45.6 "/>
<polygon fill="#FFFFFF" points="20.4,45.6 21.9,45.6 21.9,51.9 24.9,51.9 24.9,53.1 20.4,53.1 20.4,45.6 "/>
<polygon fill="#FFFFFF" points="30.7,45 30.7,55.8 30,55.8 30,45 30.7,45 "/>
<path fill="#FFFFFF" d="M42,50.5c0,2.2-1.6,2.8-2.7,2.8c-1.1,0-2.7-0.5-2.7-2.8v-4.9h0.7v4.9c0,1.2,0.7,2.1,2,2.1c1.3,0,2-0.9,2-2.1
	v-4.9H42V50.5L42,50.5z"/>
<path fill="#FFFFFF" d="M44.4,48.9c0-0.4,0-0.9,0-1.3H45v1h0c0.2-0.5,0.6-1.1,1.8-1.1c1.4,0,1.9,0.9,1.9,2.1v3.5H48v-3.3
	c0-1-0.4-1.7-1.3-1.7c-1.2,0-1.6,1.1-1.6,2v3h-0.7V48.9L44.4,48.9z"/>
<path fill="#FFFFFF" d="M51.6,46.1h-0.7v-0.9h0.7V46.1 M50.9,47.6h0.7v5.5h-0.7V47.6L50.9,47.6z"/>
<polygon fill="#FFFFFF" points="55.9,53.1 55.1,53.1 53.2,47.6 53.9,47.6 55.5,52.4 55.5,52.4 57.1,47.6 57.8,47.6 55.9,53.1 "/>
<path fill="#FFFFFF" d="M63,52.9c-0.5,0.2-1.1,0.3-1.6,0.3c-1.8,0-2.5-1.2-2.5-2.9c0-1.7,0.9-2.9,2.3-2.9c1.6,0,2.2,1.2,2.2,2.7v0.3
	h-3.8c0,1.2,0.6,2.1,1.8,2.1c0.5,0,1.2-0.2,1.5-0.4V52.9 M62.7,50c0-1-0.4-1.9-1.4-1.9c-1,0-1.6,1-1.6,1.9H62.7L62.7,50z"/>
<path fill="#FFFFFF" d="M65.3,48.8c0-0.6,0-0.8,0-1.2H66v1.1h0c0.2-0.6,0.7-1.2,1.4-1.2c0.2,0,0.4,0,0.5,0.1v0.7
	c-0.1,0-0.3-0.1-0.5-0.1c-1.1,0-1.4,1.2-1.4,2.2v2.7h-0.7V48.8L65.3,48.8z"/>
<path fill="#FFFFFF" d="M69.1,52.3c0.4,0.2,0.9,0.3,1.4,0.3c0.6,0,1.2-0.4,1.2-1c0-1.3-2.6-1.1-2.6-2.7c0-1.1,0.9-1.5,1.8-1.5
	c0.3,0,0.9,0.1,1.4,0.2l-0.1,0.6c-0.4-0.2-0.8-0.3-1.2-0.3c-0.7,0-1.2,0.2-1.2,0.9c0,1,2.7,0.9,2.7,2.7c0,1.2-1.1,1.6-1.9,1.6
	c-0.5,0-1.1-0.1-1.5-0.3L69.1,52.3L69.1,52.3z"/>
<path fill="#FFFFFF" d="M75,46.1h-0.7v-0.9H75V46.1 M74.3,47.6H75v5.5h-0.7V47.6L74.3,47.6z"/>
<path fill="#FFFFFF" d="M79.7,48.2h-1.3v3.6c0,0.5,0.2,0.9,0.7,0.9c0.3,0,0.4-0.1,0.6-0.1l0,0.6c-0.2,0.1-0.5,0.2-0.8,0.2
	c-1.2,0-1.3-0.8-1.3-1.8v-3.2h-1.1v-0.6h1.1v-1.3l0.7-0.2v1.6h1.3V48.2L79.7,48.2z"/>
<path fill="#FFFFFF" d="M85.2,52.9c-0.5,0.2-1.1,0.3-1.6,0.3c-1.8,0-2.5-1.2-2.5-2.9c0-1.7,0.9-2.9,2.3-2.9c1.6,0,2.2,1.2,2.2,2.7
	v0.3h-3.8c0,1.2,0.6,2.1,1.8,2.1c0.5,0,1.2-0.2,1.5-0.4V52.9 M84.8,50c0-1-0.4-1.9-1.4-1.9c-1,0-1.6,1-1.6,1.9H84.8 M83.7,45.5h0.9
	L83.2,47h-0.5L83.7,45.5L83.7,45.5z"/>
<path fill="#FFFFFF" d="M95.4,53.1h-0.7v-0.9h0c-0.4,0.7-0.9,1-1.7,1c-1.5,0-2.3-1.2-2.3-2.9c0-1.7,0.6-2.9,2.3-2.9
	c1.1,0,1.6,0.8,1.7,1.1h0V45h0.7V53.1 M93.1,52.6c1.2,0,1.6-1.3,1.6-2.3c0-1-0.4-2.3-1.6-2.3c-1.3,0-1.6,1.2-1.6,2.3
	C91.5,51.4,91.8,52.6,93.1,52.6L93.1,52.6z"/>
<path fill="#FFFFFF" d="M101.3,52.9c-0.5,0.2-1.1,0.3-1.6,0.3c-1.8,0-2.5-1.2-2.5-2.9c0-1.7,0.9-2.9,2.3-2.9c1.6,0,2.2,1.2,2.2,2.7
	v0.3H98c0,1.2,0.6,2.1,1.8,2.1c0.5,0,1.2-0.2,1.5-0.4V52.9 M101,50c0-1-0.4-1.9-1.4-1.9c-1,0-1.6,1-1.6,1.9H101L101,50z"/>
<polygon fill="#FFFFFF" points="107.2,45.6 108,45.6 108,52.5 111,52.5 111,53.1 107.2,53.1 107.2,45.6 "/>
<path fill="#FFFFFF" d="M115.8,52.2L115.8,52.2c-0.3,0.7-1.1,1-1.8,1c-1.6,0-1.8-1.1-1.8-1.6c0-1.8,2-1.9,3.4-1.9h0.1v-0.3
	c0-0.9-0.3-1.4-1.2-1.4c-0.6,0-1.1,0.1-1.6,0.5v-0.7c0.4-0.2,1.1-0.4,1.6-0.4c1.4,0,1.9,0.6,1.9,2v2.4c0,0.4,0,0.8,0.1,1.2h-0.7
	V52.2 M115.7,50.3h-0.2c-1.2,0-2.6,0.1-2.6,1.3c0,0.7,0.5,1,1.1,1c1.6,0,1.6-1.4,1.6-2V50.3L115.7,50.3z"/>
<path fill="#FFFFFF" d="M122.9,51.8c0,0.4,0,0.9,0,1.3h-0.7v-1h0c-0.2,0.5-0.6,1.1-1.8,1.1c-1.4,0-1.9-0.9-1.9-2.1v-3.5h0.7v3.3
	c0,1,0.4,1.7,1.3,1.7c1.2,0,1.6-1.1,1.6-2v-3h0.7V51.8L122.9,51.8z"/>
<path fill="#FFFFFF" d="M124.8,52.3c0.4,0.2,0.9,0.3,1.4,0.3c0.6,0,1.2-0.4,1.2-1c0-1.3-2.6-1.1-2.6-2.7c0-1.1,0.9-1.5,1.8-1.5
	c0.3,0,0.9,0.1,1.4,0.2l-0.1,0.6c-0.4-0.2-0.8-0.3-1.2-0.3c-0.7,0-1.2,0.2-1.2,0.9c0,1,2.7,0.9,2.7,2.7c0,1.2-1.1,1.6-1.9,1.6
	c-0.5,0-1.1-0.1-1.5-0.3L124.8,52.3L124.8,52.3z"/>
<path fill="#FFFFFF" d="M133.1,52.2L133.1,52.2c-0.3,0.7-1.1,1-1.8,1c-1.6,0-1.8-1.1-1.8-1.6c0-1.8,2-1.9,3.4-1.9h0.1v-0.3
	c0-0.9-0.3-1.4-1.3-1.4c-0.6,0-1.1,0.1-1.6,0.5v-0.7c0.4-0.2,1.1-0.4,1.6-0.4c1.4,0,1.9,0.6,1.9,2v2.4c0,0.4,0,0.8,0.1,1.2h-0.7
	V52.2 M133.1,50.3h-0.2c-1.2,0-2.6,0.1-2.6,1.3c0,0.7,0.5,1,1.1,1c1.6,0,1.6-1.4,1.6-2V50.3L133.1,50.3z"/>
<path fill="#FFFFFF" d="M136,48.9c0-0.4,0-0.9,0-1.3h0.7v1h0c0.2-0.5,0.6-1.1,1.8-1.1c1.4,0,1.9,0.9,1.9,2.1v3.5h-0.7v-3.3
	c0-1-0.4-1.7-1.3-1.7c-1.2,0-1.6,1.1-1.6,2v3H136V48.9L136,48.9z"/>
<path fill="#FFFFFF" d="M142.6,48.9c0-0.4,0-0.9,0-1.3h0.7v1h0c0.2-0.5,0.6-1.1,1.8-1.1c1.4,0,1.9,0.9,1.9,2.1v3.5h-0.7v-3.3
	c0-1-0.4-1.7-1.3-1.7c-1.2,0-1.6,1.1-1.6,2v3h-0.7V48.9L142.6,48.9z"/>
<path fill="#FFFFFF" d="M152.9,52.9c-0.5,0.2-1.1,0.3-1.6,0.3c-1.8,0-2.5-1.2-2.5-2.9c0-1.7,0.9-2.9,2.3-2.9c1.6,0,2.2,1.2,2.2,2.7
	v0.3h-3.8c0,1.2,0.6,2.1,1.8,2.1c0.5,0,1.2-0.2,1.5-0.4V52.9 M152.5,50c0-1-0.4-1.9-1.4-1.9c-1,0-1.6,1-1.6,1.9H152.5L152.5,50z"/>
</svg>
