<?xml version="1.0" encoding="UTF-8"?>
<svg id="UNIL-LOGOTYPE" xmlns="http://www.w3.org/2000/svg" viewBox="0 0 860 400">
  <defs>
    <style>
      .cls-1 {
        fill: #fff;
      }
    </style>
  </defs>
  <path class="cls-1" d="M732.69,303.59c7.85,0,14.34-2.52,19.46-7.56,5.12-5.03,7.68-11.48,7.68-19.33s-2.56-14.3-7.68-19.33c-5.12-5.03-11.61-7.56-19.46-7.56s-14.08,2.52-19.21,7.56c-5.12,5.04-7.68,11.48-7.68,19.33s2.56,14.3,7.68,19.33c5.12,5.03,11.52,7.56,19.21,7.56M627.44,130.22v169.78h47.89V80.02h-59.92c-8.03,0-12.04,3.93-12.04,11.78v9.73c0,7,3.24,11.61,9.73,13.83l4.35,1.28c6.66,2.05,9.99,6.57,9.99,13.57M529.36,127.91h47.89v-47.89h-47.89v47.89ZM529.36,200.38v99.62h47.89v-150.07h-59.92c-8.03,0-12.04,4.01-12.04,12.04v9.73c0,7,3.24,11.52,9.73,13.57l4.61,1.28c6.49,2.39,9.73,7,9.73,13.83M339.35,200.38v99.62h47.89v-90.14c0-7.34,1.96-13.14,5.89-17.41,3.92-4.26,9.3-6.4,16.13-6.4s12.2,2.14,16.13,6.4c3.93,4.27,5.89,10.07,5.89,17.41v90.14h47.89v-96.8c0-17.58-4.65-31.54-13.96-41.87-9.31-10.33-21.81-15.49-37.52-15.49-10.24,0-19.12,2.26-26.63,6.79-7.51,4.52-13.49,11.06-17.93,19.59v-22.28h-55.83c-8.03,0-12.04,4.01-12.04,12.04v9.73c0,7,3.24,11.52,9.73,13.57l4.35,1.28c6.66,2.22,9.99,6.83,9.99,13.83M206.18,303.59c16.73,0,31.28-3.03,43.66-9.09,12.38-6.06,21.85-14.73,28.43-25.99,6.57-11.27,9.86-24.58,9.86-39.95V100h-47.89v125.99c0,10.76-3.03,19.21-9.09,25.35-6.06,6.15-14.3,9.22-24.71,9.22s-18.65-3.07-24.71-9.22c-6.06-6.15-9.09-14.6-9.09-25.35v-125.99h-60.44c-8.03,0-12.04,4.01-12.04,12.04v9.73c0,6.66,3.24,11.18,9.73,13.57l4.35,1.28c6.66,2.05,9.99,6.57,9.99,13.57v78.36c0,15.37,3.28,28.68,9.86,39.95,6.57,11.27,16.04,19.94,28.43,25.99,12.38,6.06,26.93,9.09,43.66,9.09"/>
</svg>
